<svg width="609" height="537" xmlns="http://www.w3.org/2000/svg" xmlns:xlink="http://www.w3.org/1999/xlink" xml:space="preserve" overflow="hidden"><g transform="translate(-351 -20)"><path d="M924.756 555.563C927.214 555.563 929.937 555.26 932.66 554.693 935.232 553.975 938.068 552.954 940.639 551.517 943.362 550.079 945.934 548.416 948.354 546.071 950.623 543.953 952.627 541.382 954.367 538.545 955.955 535.671 957.241 532.495 957.922 529.394 958.678 526.255 958.905 523.078 958.829 520.053 958.829 517.103 958.224 514.229 957.392 511.506 956.636 508.897 955.501 506.477 954.367 504.359L684.543 37.0554C683.409 34.8999 681.858 32.7821 680.005 30.74 678.001 28.7735 675.883 26.8827 673.274 25.3322 670.702 23.6304 667.828 22.3446 664.727 21.4749 661.551 20.4916 658.412 20.0378 655.122 20.0378 651.68 20.0378 648.504 20.4916 645.403 21.4749 642.264 22.3446 639.39 23.6304 636.818 25.3322 634.247 26.8827 632.091 28.7735 630.087 30.74 628.234 32.7821 626.646 34.8999 625.511 37.0554L355.688 504.359C354.402 506.477 353.381 508.897 352.549 511.506 351.792 514.229 351.263 517.103 351.112 520.053 350.96 523.078 351.263 526.255 352.095 529.394 352.851 532.495 353.986 535.671 355.688 538.545 357.238 541.382 359.394 543.953 361.663 546.071 364.007 548.416 366.579 550.079 369.264 551.517 371.987 552.954 374.71 553.975 377.432 554.693 380.155 555.26 382.727 555.563 385.109 555.563L924.756 555.563Z" fill="#FF0000"/><path d="M414.758 504.359 895.335 504.359 654.933 88.2595 414.758 504.359Z" fill="#FFFFFF"/><path d="M586.333 476.488C593.442 478.681 601.346 477.774 607.926 474.068 614.506 470.475 619.536 464.5 621.654 457.201L631.222 415.867 648.277 383.874C648.806 382.551 650.243 381.719 651.68 381.719 653.118 381.719 654.365 382.551 655.122 383.874L666.58 420.443 708.33 475.505C714.078 472.063 718.2 466.315 719.637 459.773 721.226 453.344 720.205 446.348 716.65 440.6L692.75 409.022 678.039 349.385 679.476 294.324 703.376 312.589 703.376 347.041C703.376 348.099 703.603 349.234 704.775 349.915 705.191 350.255 705.759 350.558 706.326 350.558 706.931 350.558 707.498 350.558 707.914 350.255L715.667 346.662C719.221 344.772 721.49 341.33 721.642 337.322L721.642 298.862 671.156 254.427C669.303 252.687 667.034 251.553 664.614 251.402 662.042 251.137 659.509 251.704 657.391 252.99L632.205 266.717 570.147 349.385C569.467 350.255 569.315 351.389 569.92 352.373 570.072 352.978 570.45 353.432 570.904 353.545 571.471 353.81 572.038 353.961 572.492 353.961L580.32 353.961C582.589 354.112 584.782 353.28 586.333 351.692L627.516 310.32 632.205 349.385 605.506 399.871 586.333 476.488Z" fill="#010101"/><path d="M648.277 250.683C651.151 250.683 654.101 250.305 657.126 249.019 660.151 247.847 662.836 245.994 665.257 243.725 667.677 241.267 669.417 238.544 670.551 235.556 671.837 232.569 672.291 229.581 672.291 226.707 672.291 220.278 669.719 214.114 665.257 209.69 660.719 205.076 654.555 202.467 648.277 202.467 645.441 202.467 642.415 203.072 639.39 204.206 636.402 205.341 633.528 207.194 631.222 209.69 628.801 211.996 626.91 214.87 625.776 217.82 624.641 220.846 624.036 223.833 624.036 226.707 624.036 232.985 626.608 239.149 631.222 243.725 635.684 248.149 641.81 250.683 648.277 250.683Z" fill="#010101"/></g></svg>