<?xml version="1.0" encoding="UTF-8" standalone="no"?>
<!-- Created with Inkscape (http://www.inkscape.org/) -->

<svg
   width="1010.4"
   height="1010.4002"
   id="svg2"
   sodipodi:version="0.32"
   inkscape:version="1.2.2 (732a01da63, 2022-12-09)"
   version="1.0"
   sodipodi:docname="Spain_traffic_signal_r2.svg"
   inkscape:output_extension="org.inkscape.output.svg.inkscape"
   xmlns:inkscape="http://www.inkscape.org/namespaces/inkscape"
   xmlns:sodipodi="http://sodipodi.sourceforge.net/DTD/sodipodi-0.dtd"
   xmlns="http://www.w3.org/2000/svg"
   xmlns:svg="http://www.w3.org/2000/svg"
   xmlns:rdf="http://www.w3.org/1999/02/22-rdf-syntax-ns#"
   xmlns:cc="http://creativecommons.org/ns#"
   xmlns:dc="http://purl.org/dc/elements/1.1/">
  <defs
     id="defs4">
    <inkscape:perspective
       sodipodi:type="inkscape:persp3d"
       inkscape:vp_x="0 : 300.5 : 1"
       inkscape:vp_y="0 : 1000 : 0"
       inkscape:vp_z="601 : 300.5 : 1"
       inkscape:persp3d-origin="300.5 : 200.33333 : 1"
       id="perspective3380" />
    <inkscape:perspective
       id="perspective3990"
       inkscape:persp3d-origin="375 : 250 : 1"
       inkscape:vp_z="750 : 375 : 1"
       inkscape:vp_y="0 : 1000 : 0"
       inkscape:vp_x="0 : 375 : 1"
       sodipodi:type="inkscape:persp3d" />
  </defs>
  <sodipodi:namedview
     id="base"
     pagecolor="#ffffff"
     bordercolor="#666666"
     borderopacity="1.0"
     gridtolerance="10000"
     guidetolerance="10"
     objecttolerance="10"
     inkscape:pageopacity="0.0"
     inkscape:pageshadow="2"
     inkscape:zoom="0.44192573"
     inkscape:cx="667.53298"
     inkscape:cy="474.06156"
     inkscape:document-units="px"
     inkscape:current-layer="layer1"
     width="601px"
     height="601px"
     inkscape:window-width="1920"
     inkscape:window-height="991"
     inkscape:window-x="-9"
     inkscape:window-y="-9"
     showgrid="false"
     fit-margin-top="0.2"
     fit-margin-left="0.2"
     fit-margin-right="0.2"
     fit-margin-bottom="0.2"
     inkscape:window-maximized="1"
     showguides="true"
     inkscape:guide-bbox="true"
     inkscape:showpageshadow="2"
     inkscape:pagecheckerboard="0"
     inkscape:deskcolor="#d1d1d1" />
  <metadata
     id="metadata7">
    <rdf:RDF>
      <cc:Work
         rdf:about="">
        <dc:format>image/svg+xml</dc:format>
        <dc:type
           rdf:resource="http://purl.org/dc/dcmitype/StillImage" />
        <dc:title />
      </cc:Work>
    </rdf:RDF>
  </metadata>
  <g
     inkscape:label="Layer 1"
     inkscape:groupmode="layer"
     id="layer1"
     transform="translate(1515.529,3241.075)">
    <rect
       style="color:#000000;fill:#000000;fill-opacity:1;fill-rule:nonzero;stroke:none;stroke-width:0.8735441;marker:none;visibility:visible;display:inline;overflow:visible"
       id="rect3653"
       width="0"
       height="27.202072"
       x="578.73834"
       y="298.1684"
       rx="249.48199"
       ry="27.202072" />
    <path
       inkscape:connector-curvature="0"
       id="path3940"
       d="m -801.1513,-2230.8749 295.8223,-295.8221 -10e-5,-418.3556 -295.822,-295.8224 -418.3557,3e-4 -295.8222,295.8221 2e-4,418.3558 295.822,295.822 z"
       style="fill:#000000;fill-opacity:1;stroke:none" />
    <path
       inkscape:connector-curvature="0"
       id="path3942"
       d="m -803.2223,-2235.875 292.8933,-292.8932 -10e-5,-414.2135 -292.8931,-292.8935 -414.2135,3e-4 -292.8933,292.8932 2e-4,414.2136 292.8931,292.8932 z"
       style="fill:#ffffff;fill-opacity:1;stroke:none" />
    <g
       id="g4797"
       transform="matrix(3.2596685,0,0,3.2596685,-1511.1445,-3236.6905)">
      <polyline
         class="cls-3"
         points="93.64 298.44 213.54 298.44 298.44 213.64 298.44 93.64 213.54 8.84 93.64 8.84 8.84 93.64 8.84 213.64 93.64 298.44"
         id="polyline10"
         style="fill:#e41408;fill-opacity:1;fill-rule:evenodd" />
      <path
         class="cls-1"
         d="m 24.24,178.44 a 35,35 0 0 0 0.5,5.4 31.37,31.37 0 0 0 1.7,5.5 29.44,29.44 0 0 0 6.7,9.9 27.6,27.6 0 0 0 10.3,6.3 27.77,27.77 0 0 0 5.5,1.4 33.32,33.32 0 0 0 5.4,0.2 28,28 0 0 0 17.3,-6.7 29,29 0 0 0 9.7,-16 39.85,39.85 0 0 0 -0.5,-19.1 40.63,40.63 0 0 0 -9.3,-16.7 50.06,50.06 0 0 0 -17.9,-12.2 A 17.42,17.42 0 0 1 47,132 a 11.56,11.56 0 0 1 -2,-3.2 9.94,9.94 0 0 1 0.4,-7.8 8.46,8.46 0 0 1 2.3,-2.9 9.77,9.77 0 0 1 3.4,-2.1 11,11 0 0 1 4.4,-0.7 10.64,10.64 0 0 1 4.3,1.2 11.29,11.29 0 0 1 3.1,2.6 11.56,11.56 0 0 1 2,3.2 11.21,11.21 0 0 1 0.9,3.6 l 15.4,-0.3 a 28.9,28.9 0 0 0 -6.6,-16.5 26.7,26.7 0 0 0 -3.4,-3.3 30.67,30.67 0 0 0 -4.2,-2.8 25.09,25.09 0 0 0 -10.2,-2.9 26.43,26.43 0 0 0 -10.5,1.3 32.21,32.21 0 0 0 -4.6,2.1 38.86,38.86 0 0 0 -3.9,2.8 l -0.7,0.7 a 24.72,24.72 0 0 0 -8,17.4 25,25 0 0 0 6.6,18 33.49,33.49 0 0 0 12.3,8.3 33.35,33.35 0 0 1 12.3,8.4 23.8,23.8 0 0 1 5.7,10.3 23.18,23.18 0 0 1 0.3,11.7 13,13 0 0 1 -4.5,7.5 13.14,13.14 0 0 1 -8.2,3.2 12.25,12.25 0 0 1 -5.2,-0.8 12.9,12.9 0 0 1 -4.8,-3 14.23,14.23 0 0 1 -3.1,-4.7 12.17,12.17 0 0 1 -0.9,-5.2 l -15.4,0.3"
         id="path12"
         style="fill:#fefefe;fill-rule:evenodd" />
      <polyline
         class="cls-1"
         points="142.64 102.54 91.54 102.54 91.54 117.84 109.44 117.84 109.44 204.74 124.84 204.74 124.84 117.84 142.64 117.84 142.64 102.54"
         id="polyline14"
         style="fill:#fefefe;fill-rule:evenodd" />
      <path
         class="cls-1"
         d="m 172.44,185.54 a 83,83 0 0 1 0.6,-64.4 10.35,10.35 0 0 1 9.5,-6.2 10.56,10.56 0 0 1 5.7,1.7 11.08,11.08 0 0 1 3.8,4.5 84.75,84.75 0 0 1 6.7,32.2 82.77,82.77 0 0 1 -6.2,32.2 10.65,10.65 0 0 1 -4,4.9 10.58,10.58 0 0 1 -12.1,0 10.65,10.65 0 0 1 -4,-4.9 m -13.5,-70.4 a 97.33,97.33 0 0 0 -8,38 100.7,100.7 0 0 0 7.3,38.3 26.63,26.63 0 0 0 9.7,11.8 26.42,26.42 0 0 0 29.2,0 26.42,26.42 0 0 0 9.6,-11.8 98.35,98.35 0 0 0 -0.6,-76.3 25.66,25.66 0 0 0 -47.2,0"
         id="path16"
         style="fill:#fefefe;fill-rule:evenodd" />
      <path
         class="cls-1"
         d="m 256.74,117.84 a 9.22,9.22 0 0 1 5.1,1.5 13.22,13.22 0 0 1 2.6,2.2 13,13 0 0 1 2.2,2.9 15.58,15.58 0 0 1 2.1,7.7 15.88,15.88 0 0 1 -2,7.8 13,13 0 0 1 -2.2,2.9 13.22,13.22 0 0 1 -2.6,2.2 7.67,7.67 0 0 1 -4.4,1.4 h -14.4 v -28.6 h 13.6 m 0,43.9 a 25.21,25.21 0 0 0 16.8,-6.3 30.84,30.84 0 0 0 8,-10.9 39.9,39.9 0 0 0 -0.8,-26.2 29.88,29.88 0 0 0 -11.8,-12.6 23.5,23.5 0 0 0 -11.8,-3.2 h -29.3 v 102.2 h 15.3 v -43 h 13.6"
         id="path18"
         style="fill:#fefefe;fill-rule:evenodd" />
    </g>
  </g>
</svg>
